<?xml version="1.0" standalone="no"?>
<!DOCTYPE svg PUBLIC "-//W3C//DTD SVG 20010904//EN"
 "http://www.w3.org/TR/2001/REC-SVG-20010904/DTD/svg10.dtd">
<svg version="1.0" xmlns="http://www.w3.org/2000/svg"
 width="238.000000pt" height="261.000000pt" viewBox="0 0 238.000000 261.000000"
 preserveAspectRatio="xMidYMid meet">

<g transform="translate(0.000000,261.000000) scale(0.100000,-0.100000)"
fill="#000000" stroke="none">
<path d="M1148 2591 c-8 -9 -262 -160 -566 -336 -440 -255 -551 -324 -548
-337 3 -13 -2 -18 -15 -18 -18 0 -19 -16 -19 -590 l0 -590 25 0 c22 0 24 -2
13 -20 -7 -10 -10 -21 -8 -23 5 -5 384 -219 830 -470 157 -88 294 -168 306
-178 25 -24 45 -24 65 -1 8 9 263 161 566 337 470 273 549 322 545 339 -4 15
-1 18 11 13 9 -3 18 0 21 9 3 8 6 273 6 589 l0 575 -25 0 c-28 0 -29 3 -15 30
10 19 61 -11 -925 545 -104 59 -197 115 -205 124 -19 22 -44 23 -62 2z m282
-249 c869 -490 837 -471 844 -504 9 -44 7 -1061 -2 -1074 -7 -12 -43 -33 -587
-349 -159 -92 -335 -194 -389 -226 l-99 -59 -51 29 c-28 16 -274 155 -546 310
l-495 280 -3 555 -2 554 202 118 c112 65 352 204 533 310 182 106 335 193 340
194 6 0 121 -62 255 -138z"/>
<path d="M1145 2412 c-3 -9 -226 -145 -495 -301 l-490 -285 0 -515 c0 -284 4
-521 8 -527 7 -10 117 -73 692 -396 157 -89 292 -168 300 -178 18 -20 70 -25
70 -6 0 7 220 141 490 297 l489 284 1 523 0 523 -57 35 c-32 19 -166 96 -298
171 -132 74 -328 185 -435 245 -107 61 -201 117 -207 126 -18 22 -61 24 -68 4z
m537 -311 l493 -279 3 -509 2 -509 -462 -269 c-255 -148 -476 -277 -493 -286
l-30 -17 -500 282 -500 283 -3 506 -2 505 487 285 c269 157 493 286 500 286 6
1 233 -125 505 -278z"/>
<path d="M680 1829 c-72 -40 -112 -79 -149 -149 -38 -70 -38 -90 -6 -120 l26
-24 136 137 137 136 -24 26 c-30 32 -53 31 -120 -6z"/>
<path d="M1520 1835 l-24 -26 134 -135 c74 -74 141 -133 149 -132 8 2 23 15
34 30 l20 27 -31 63 c-36 73 -96 135 -166 172 -61 33 -86 33 -116 1z"/>
<path d="M717 1642 l-138 -138 24 -22 23 -22 137 138 138 138 -24 22 -23 22
-137 -138z"/>
<path d="M1447 1762 c-10 -10 -17 -23 -17 -28 0 -5 61 -70 135 -144 133 -132
134 -134 155 -115 11 10 20 23 20 29 0 11 -260 276 -271 276 -3 0 -13 -8 -22
-18z"/>
<path d="M792 1577 c-73 -74 -132 -138 -132 -143 0 -5 29 -38 64 -73 48 -47
68 -62 83 -57 26 8 253 239 253 257 0 8 -31 45 -68 82 l-68 67 -132 -133z"/>
<path d="M1326 1641 c-55 -58 -65 -73 -57 -88 5 -10 63 -71 129 -137 92 -91
124 -117 139 -112 10 3 45 33 78 66 l60 60 -141 141 -140 140 -68 -70z"/>
<path d="M965 1400 l-39 -40 64 -65 65 -65 40 40 40 40 -65 65 -66 65 -39 -40z"/>
<path d="M1144 1259 l-180 -179 -68 0 c-70 0 -95 -8 -134 -44 -81 -73 -61
-211 38 -263 54 -29 104 -29 155 0 63 36 85 77 85 160 l0 70 178 181 177 181
-36 36 -36 37 -179 -179z m-203 -278 c60 -60 22 -150 -64 -151 -83 0 -120 100
-56 154 41 35 83 34 120 -3z"/>
<path d="M1227 1132 l-37 -38 45 -44 c44 -43 45 -45 45 -110 0 -85 28 -136 90
-167 24 -13 58 -23 75 -23 41 0 114 38 139 72 12 18 21 49 24 85 3 49 0 64
-20 93 -40 59 -81 80 -157 80 -66 0 -67 1 -111 45 -24 25 -47 45 -50 45 -3 0
-23 -17 -43 -38z m262 -136 c28 -15 51 -53 51 -86 0 -11 -12 -34 -27 -50 -70
-78 -192 0 -148 93 25 53 72 69 124 43z"/>
</g>
</svg>
